<svg width="266" height="733" viewBox="0 0 266 733" fill="none" xmlns="http://www.w3.org/2000/svg">
<mask id="path-1-outside-1_5_559" maskUnits="userSpaceOnUse" x="0" y="0" width="266" height="733" fill="black">
<rect fill="white" width="266" height="733"/>
<path d="M0 0H264V733H0V0Z"/>
</mask>
<path d="M0 0H264V733H0V0Z" fill="white"/>
<path d="M262.5 0V733H265.5V0H262.5Z" fill="#E8E8E8" mask="url(#path-1-outside-1_5_559)"/>
<rect width="236" height="48" transform="translate(28 34)" fill="white"/>
<path d="M54.9453 51.3698C55.2812 51.1459 55.7188 51.1459 56.0547 51.3698L62.5547 55.7031C62.8329 55.8886 63 56.2008 63 56.5352V65C63 65.5523 62.5523 66 62 66H59.3125C58.7602 66 58.3125 65.5523 58.3125 65V61.1667C58.3125 60.6144 57.8648 60.1667 57.3125 60.1667H53.6875C53.1352 60.1667 52.6875 60.6144 52.6875 61.1667V65C52.6875 65.5523 52.2398 66 51.6875 66H49C48.4477 66 48 65.5523 48 65V56.5352C48 56.2008 48.1671 55.8886 48.4453 55.7031L54.9453 51.3698Z" fill="black"/>
<path d="M89.824 52.848V64H88.368V58.944H82.688V64H81.232V52.848H82.688V57.744H88.368V52.848H89.824ZM96.1341 64.144C95.3128 64.144 94.5661 63.9573 93.8941 63.584C93.2328 63.2107 92.7101 62.6827 92.3261 62C91.9528 61.3067 91.7661 60.5067 91.7661 59.6C91.7661 58.704 91.9581 57.9147 92.3421 57.232C92.7368 56.5387 93.2701 56.0107 93.9421 55.648C94.6141 55.2747 95.3661 55.088 96.1981 55.088C97.0301 55.088 97.7821 55.2747 98.4541 55.648C99.1261 56.0107 99.6541 56.5333 100.038 57.216C100.433 57.8987 100.63 58.6933 100.63 59.6C100.63 60.5067 100.427 61.3067 100.022 62C99.6275 62.6827 99.0888 63.2107 98.4061 63.584C97.7235 63.9573 96.9661 64.144 96.1341 64.144ZM96.1341 62.864C96.6568 62.864 97.1475 62.7413 97.6061 62.496C98.0648 62.2507 98.4328 61.8827 98.7101 61.392C98.9981 60.9013 99.1421 60.304 99.1421 59.6C99.1421 58.896 99.0035 58.2987 98.7261 57.808C98.4488 57.3173 98.0861 56.9547 97.6381 56.72C97.1901 56.4747 96.7048 56.352 96.1821 56.352C95.6488 56.352 95.1581 56.4747 94.7101 56.72C94.2728 56.9547 93.9208 57.3173 93.6541 57.808C93.3875 58.2987 93.2541 58.896 93.2541 59.6C93.2541 60.3147 93.3821 60.9173 93.6381 61.408C93.9048 61.8987 94.2568 62.2667 94.6941 62.512C95.1315 62.7467 95.6115 62.864 96.1341 62.864ZM113.089 55.072C113.771 55.072 114.379 55.216 114.913 55.504C115.446 55.7813 115.867 56.2027 116.177 56.768C116.486 57.3333 116.641 58.0213 116.641 58.832V64H115.201V59.04C115.201 58.1653 114.982 57.4987 114.545 57.04C114.118 56.5707 113.537 56.336 112.801 56.336C112.043 56.336 111.441 56.5813 110.993 57.072C110.545 57.552 110.321 58.2507 110.321 59.168V64H108.881V59.04C108.881 58.1653 108.662 57.4987 108.225 57.04C107.798 56.5707 107.217 56.336 106.481 56.336C105.723 56.336 105.121 56.5813 104.673 57.072C104.225 57.552 104.001 58.2507 104.001 59.168V64H102.545V55.232H104.001V56.496C104.289 56.0373 104.673 55.6853 105.153 55.44C105.643 55.1947 106.182 55.072 106.769 55.072C107.505 55.072 108.155 55.2373 108.721 55.568C109.286 55.8987 109.707 56.384 109.985 57.024C110.23 56.4053 110.635 55.9253 111.201 55.584C111.766 55.2427 112.395 55.072 113.089 55.072ZM127.029 59.28C127.029 59.5573 127.013 59.8507 126.981 60.16H119.973C120.026 61.024 120.32 61.7013 120.853 62.192C121.397 62.672 122.053 62.912 122.821 62.912C123.45 62.912 123.973 62.768 124.389 62.48C124.816 62.1813 125.114 61.7867 125.285 61.296H126.853C126.618 62.1387 126.149 62.8267 125.445 63.36C124.741 63.8827 123.866 64.144 122.821 64.144C121.989 64.144 121.242 63.9573 120.581 63.584C119.93 63.2107 119.418 62.6827 119.045 62C118.672 61.3067 118.485 60.5067 118.485 59.6C118.485 58.6933 118.666 57.8987 119.029 57.216C119.392 56.5333 119.898 56.0107 120.549 55.648C121.21 55.2747 121.968 55.088 122.821 55.088C123.653 55.088 124.389 55.2693 125.029 55.632C125.669 55.9947 126.16 56.496 126.501 57.136C126.853 57.7653 127.029 58.48 127.029 59.28ZM125.525 58.976C125.525 58.4213 125.402 57.9467 125.157 57.552C124.912 57.1467 124.576 56.8427 124.149 56.64C123.733 56.4267 123.269 56.32 122.757 56.32C122.021 56.32 121.392 56.5547 120.869 57.024C120.357 57.4933 120.064 58.144 119.989 58.976H125.525Z" fill="black"/>
<rect width="236" height="48" transform="translate(28 82)" fill="white"/>
<path fill-rule="evenodd" clip-rule="evenodd" d="M49.6 100H54.4L56 101.625H62.4C62.8243 101.625 63.2313 101.796 63.5314 102.101C63.8314 102.406 64 102.819 64 103.25V111.375C64 111.806 63.8314 112.219 63.5314 112.524C63.2313 112.829 62.8243 113 62.4 113H49.6C49.1757 113 48.7687 112.829 48.4686 112.524C48.1686 112.219 48 111.806 48 111.375V101.625C48 100.723 48.712 100 49.6 100ZM56 109.75C57.1046 109.75 58 108.78 58 107.583C58 106.387 57.1046 105.417 56 105.417C54.8954 105.417 54 106.387 54 107.583C54 108.78 54.8954 109.75 56 109.75Z" fill="black"/>
<path d="M88.688 104.112C88.688 105.04 88.368 105.813 87.728 106.432C87.0987 107.04 86.1333 107.344 84.832 107.344H82.688V112H81.232V100.848H84.832C86.0907 100.848 87.0453 101.152 87.696 101.76C88.3573 102.368 88.688 103.152 88.688 104.112ZM84.832 106.144C85.6427 106.144 86.24 105.968 86.624 105.616C87.008 105.264 87.2 104.763 87.2 104.112C87.2 102.736 86.4107 102.048 84.832 102.048H82.688V106.144H84.832ZM91.9536 104.656C92.2096 104.155 92.5723 103.765 93.0416 103.488C93.5216 103.211 94.103 103.072 94.7856 103.072V104.576H94.4016C92.7696 104.576 91.9536 105.461 91.9536 107.232V112H90.4976V103.232H91.9536V104.656ZM100.29 112.144C99.469 112.144 98.7224 111.957 98.0504 111.584C97.389 111.211 96.8664 110.683 96.4824 110C96.109 109.307 95.9224 108.507 95.9224 107.6C95.9224 106.704 96.1144 105.915 96.4984 105.232C96.893 104.539 97.4264 104.011 98.0984 103.648C98.7704 103.275 99.5224 103.088 100.354 103.088C101.186 103.088 101.938 103.275 102.61 103.648C103.282 104.011 103.81 104.533 104.194 105.216C104.589 105.899 104.786 106.693 104.786 107.6C104.786 108.507 104.584 109.307 104.178 110C103.784 110.683 103.245 111.211 102.562 111.584C101.88 111.957 101.122 112.144 100.29 112.144ZM100.29 110.864C100.813 110.864 101.304 110.741 101.762 110.496C102.221 110.251 102.589 109.883 102.866 109.392C103.154 108.901 103.298 108.304 103.298 107.6C103.298 106.896 103.16 106.299 102.882 105.808C102.605 105.317 102.242 104.955 101.794 104.72C101.346 104.475 100.861 104.352 100.338 104.352C99.805 104.352 99.3144 104.475 98.8664 104.72C98.429 104.955 98.077 105.317 97.8104 105.808C97.5437 106.299 97.4104 106.896 97.4104 107.6C97.4104 108.315 97.5384 108.917 97.7944 109.408C98.061 109.899 98.413 110.267 98.8504 110.512C99.2877 110.747 99.7677 110.864 100.29 110.864ZM110.317 103.088C111.074 103.088 111.735 103.253 112.301 103.584C112.877 103.915 113.303 104.331 113.581 104.832V103.232H115.053V112.192C115.053 112.992 114.882 113.701 114.541 114.32C114.199 114.949 113.709 115.44 113.069 115.792C112.439 116.144 111.703 116.32 110.861 116.32C109.709 116.32 108.749 116.048 107.981 115.504C107.213 114.96 106.759 114.219 106.621 113.28H108.061C108.221 113.813 108.551 114.24 109.053 114.56C109.554 114.891 110.157 115.056 110.861 115.056C111.661 115.056 112.311 114.805 112.813 114.304C113.325 113.803 113.581 113.099 113.581 112.192V110.352C113.293 110.864 112.866 111.291 112.301 111.632C111.735 111.973 111.074 112.144 110.317 112.144C109.538 112.144 108.829 111.952 108.189 111.568C107.559 111.184 107.063 110.645 106.701 109.952C106.338 109.259 106.157 108.469 106.157 107.584C106.157 106.688 106.338 105.904 106.701 105.232C107.063 104.549 107.559 104.021 108.189 103.648C108.829 103.275 109.538 103.088 110.317 103.088ZM113.581 107.6C113.581 106.939 113.447 106.363 113.181 105.872C112.914 105.381 112.551 105.008 112.093 104.752C111.645 104.485 111.149 104.352 110.605 104.352C110.061 104.352 109.565 104.48 109.117 104.736C108.669 104.992 108.311 105.365 108.045 105.856C107.778 106.347 107.645 106.923 107.645 107.584C107.645 108.256 107.778 108.843 108.045 109.344C108.311 109.835 108.669 110.213 109.117 110.48C109.565 110.736 110.061 110.864 110.605 110.864C111.149 110.864 111.645 110.736 112.093 110.48C112.551 110.213 112.914 109.835 113.181 109.344C113.447 108.843 113.581 108.261 113.581 107.6ZM118.969 104.656C119.225 104.155 119.588 103.765 120.057 103.488C120.537 103.211 121.119 103.072 121.801 103.072V104.576H121.417C119.785 104.576 118.969 105.461 118.969 107.232V112H117.513V103.232H118.969V104.656ZM122.938 107.584C122.938 106.688 123.119 105.904 123.482 105.232C123.845 104.549 124.341 104.021 124.97 103.648C125.61 103.275 126.319 103.088 127.098 103.088C127.866 103.088 128.533 103.253 129.098 103.584C129.663 103.915 130.085 104.331 130.362 104.832V103.232H131.834V112H130.362V110.368C130.074 110.88 129.642 111.307 129.066 111.648C128.501 111.979 127.839 112.144 127.082 112.144C126.303 112.144 125.599 111.952 124.97 111.568C124.341 111.184 123.845 110.645 123.482 109.952C123.119 109.259 122.938 108.469 122.938 107.584ZM130.362 107.6C130.362 106.939 130.229 106.363 129.962 105.872C129.695 105.381 129.333 105.008 128.874 104.752C128.426 104.485 127.93 104.352 127.386 104.352C126.842 104.352 126.346 104.48 125.898 104.736C125.45 104.992 125.093 105.365 124.826 105.856C124.559 106.347 124.426 106.923 124.426 107.584C124.426 108.256 124.559 108.843 124.826 109.344C125.093 109.835 125.45 110.213 125.898 110.48C126.346 110.736 126.842 110.864 127.386 110.864C127.93 110.864 128.426 110.736 128.874 110.48C129.333 110.213 129.695 109.835 129.962 109.344C130.229 108.843 130.362 108.261 130.362 107.6ZM144.839 103.072C145.521 103.072 146.129 103.216 146.663 103.504C147.196 103.781 147.617 104.203 147.927 104.768C148.236 105.333 148.391 106.021 148.391 106.832V112H146.951V107.04C146.951 106.165 146.732 105.499 146.295 105.04C145.868 104.571 145.287 104.336 144.551 104.336C143.793 104.336 143.191 104.581 142.743 105.072C142.295 105.552 142.071 106.251 142.071 107.168V112H140.631V107.04C140.631 106.165 140.412 105.499 139.975 105.04C139.548 104.571 138.967 104.336 138.231 104.336C137.473 104.336 136.871 104.581 136.423 105.072C135.975 105.552 135.751 106.251 135.751 107.168V112H134.295V103.232H135.751V104.496C136.039 104.037 136.423 103.685 136.903 103.44C137.393 103.195 137.932 103.072 138.519 103.072C139.255 103.072 139.905 103.237 140.471 103.568C141.036 103.899 141.457 104.384 141.735 105.024C141.98 104.405 142.385 103.925 142.951 103.584C143.516 103.243 144.145 103.072 144.839 103.072Z" fill="black"/>
<mask id="path-7-inside-2_5_559" fill="white">
<path d="M28 130H264V178H28V130Z"/>
</mask>
<path d="M28 130H264V178H28V130Z" fill="#F0F0F0"/>
<path d="M31 178V130H25V178H31Z" fill="#595959" mask="url(#path-7-inside-2_5_559)"/>
<path d="M56 148C56.7735 148 57.5154 148.331 58.0624 148.919C58.6094 149.508 58.9167 150.306 58.9167 151.138C58.9167 151.97 58.6094 152.768 58.0624 153.357C57.5154 153.945 56.7735 154.276 56 154.276C55.2265 154.276 54.4846 153.945 53.9376 153.357C53.3906 152.768 53.0833 151.97 53.0833 151.138C53.0833 150.306 53.3906 149.508 53.9376 148.919C54.4846 148.331 55.2265 148 56 148ZM50.1667 150.241C50.5481 150.241 50.9073 150.331 51.2305 150.496C51.3639 150.564 51.4313 150.712 51.4236 150.861C51.3666 151.977 51.6656 153.073 52.2487 153.972C52.3287 154.095 52.3455 154.252 52.2703 154.378C51.8265 155.124 51.0526 155.621 50.1667 155.621C49.5036 155.621 48.8677 155.337 48.3989 154.833C47.9301 154.329 47.6667 153.644 47.6667 152.931C47.6667 152.218 47.9301 151.534 48.3989 151.029C48.8677 150.525 49.5036 150.241 50.1667 150.241ZM61.8333 150.241C62.4964 150.241 63.1323 150.525 63.6011 151.029C64.0699 151.534 64.3333 152.218 64.3333 152.931C64.3333 153.644 64.0699 154.329 63.6011 154.833C63.1323 155.337 62.4964 155.621 61.8333 155.621C60.9474 155.621 60.1734 155.124 59.7296 154.378C59.6545 154.252 59.6712 154.095 59.7512 153.972C60.3411 153.063 60.6315 151.967 60.576 150.861C60.5686 150.711 60.636 150.564 60.7691 150.496C61.0924 150.331 61.4517 150.241 61.8333 150.241ZM50.5833 159.431C50.5833 157.575 53.0083 156.069 56 156.069C58.9917 156.069 61.4167 157.575 61.4167 159.431V160.6C61.4167 160.821 61.2376 161 61.0167 161H50.9833C50.7624 161 50.5833 160.821 50.5833 160.6V159.431ZM46.4 161C46.1791 161 46 160.821 46 160.6V159.655C46 158.612 47.1034 157.707 48.714 157.261C49.064 157.164 49.3356 157.594 49.2002 157.931C49.0183 158.383 48.9167 158.894 48.9167 159.431V160.6C48.9167 160.821 48.7376 161 48.5167 161H46.4ZM66 160.6C66 160.821 65.8209 161 65.6 161H63.4833C63.2624 161 63.0833 160.821 63.0833 160.6V159.431C63.0833 158.894 62.9817 158.383 62.7998 157.931C62.6644 157.594 62.936 157.164 63.286 157.261C64.8966 157.707 66 158.612 66 159.655V160.6Z" fill="black"/>
<path d="M88.688 152.112C88.688 153.04 88.368 153.813 87.728 154.432C87.0987 155.04 86.1333 155.344 84.832 155.344H82.688V160H81.232V148.848H84.832C86.0907 148.848 87.0453 149.152 87.696 149.76C88.3573 150.368 88.688 151.152 88.688 152.112ZM84.832 154.144C85.6427 154.144 86.24 153.968 86.624 153.616C87.008 153.264 87.2 152.763 87.2 152.112C87.2 150.736 86.4107 150.048 84.832 150.048H82.688V154.144H84.832ZM98.4976 155.28C98.4976 155.557 98.4816 155.851 98.4496 156.16H91.4416C91.495 157.024 91.7883 157.701 92.3216 158.192C92.8656 158.672 93.5216 158.912 94.2896 158.912C94.919 158.912 95.4416 158.768 95.8576 158.48C96.2843 158.181 96.583 157.787 96.7536 157.296H98.3216C98.087 158.139 97.6176 158.827 96.9136 159.36C96.2096 159.883 95.335 160.144 94.2896 160.144C93.4576 160.144 92.711 159.957 92.0496 159.584C91.399 159.211 90.887 158.683 90.5136 158C90.1403 157.307 89.9536 156.507 89.9536 155.6C89.9536 154.693 90.135 153.899 90.4976 153.216C90.8603 152.533 91.367 152.011 92.0176 151.648C92.679 151.275 93.4363 151.088 94.2896 151.088C95.1216 151.088 95.8576 151.269 96.4976 151.632C97.1376 151.995 97.6283 152.496 97.9696 153.136C98.3216 153.765 98.4976 154.48 98.4976 155.28ZM96.9936 154.976C96.9936 154.421 96.871 153.947 96.6256 153.552C96.3803 153.147 96.0443 152.843 95.6176 152.64C95.2016 152.427 94.7376 152.32 94.2256 152.32C93.4896 152.32 92.8603 152.555 92.3376 153.024C91.8256 153.493 91.5323 154.144 91.4576 154.976H96.9936ZM104.244 160.144C103.422 160.144 102.676 159.957 102.004 159.584C101.342 159.211 100.82 158.683 100.436 158C100.062 157.307 99.8755 156.507 99.8755 155.6C99.8755 154.704 100.068 153.915 100.452 153.232C100.846 152.539 101.38 152.011 102.052 151.648C102.724 151.275 103.476 151.088 104.308 151.088C105.14 151.088 105.892 151.275 106.564 151.648C107.236 152.011 107.764 152.533 108.148 153.216C108.542 153.899 108.74 154.693 108.74 155.6C108.74 156.507 108.537 157.307 108.132 158C107.737 158.683 107.198 159.211 106.516 159.584C105.833 159.957 105.076 160.144 104.244 160.144ZM104.244 158.864C104.766 158.864 105.257 158.741 105.716 158.496C106.174 158.251 106.542 157.883 106.82 157.392C107.108 156.901 107.252 156.304 107.252 155.6C107.252 154.896 107.113 154.299 106.836 153.808C106.558 153.317 106.196 152.955 105.748 152.72C105.3 152.475 104.814 152.352 104.292 152.352C103.758 152.352 103.268 152.475 102.82 152.72C102.382 152.955 102.03 153.317 101.764 153.808C101.497 154.299 101.364 154.896 101.364 155.6C101.364 156.315 101.492 156.917 101.748 157.408C102.014 157.899 102.366 158.267 102.804 158.512C103.241 158.747 103.721 158.864 104.244 158.864ZM112.11 152.848C112.398 152.347 112.825 151.931 113.39 151.6C113.966 151.259 114.633 151.088 115.39 151.088C116.169 151.088 116.873 151.275 117.502 151.648C118.142 152.021 118.643 152.549 119.006 153.232C119.369 153.904 119.55 154.688 119.55 155.584C119.55 156.469 119.369 157.259 119.006 157.952C118.643 158.645 118.142 159.184 117.502 159.568C116.873 159.952 116.169 160.144 115.39 160.144C114.643 160.144 113.982 159.979 113.406 159.648C112.841 159.307 112.409 158.885 112.11 158.384V164.16H110.654V151.232H112.11V152.848ZM118.062 155.584C118.062 154.923 117.929 154.347 117.662 153.856C117.395 153.365 117.033 152.992 116.574 152.736C116.126 152.48 115.63 152.352 115.086 152.352C114.553 152.352 114.057 152.485 113.598 152.752C113.15 153.008 112.787 153.387 112.51 153.888C112.243 154.379 112.11 154.949 112.11 155.6C112.11 156.261 112.243 156.843 112.51 157.344C112.787 157.835 113.15 158.213 113.598 158.48C114.057 158.736 114.553 158.864 115.086 158.864C115.63 158.864 116.126 158.736 116.574 158.48C117.033 158.213 117.395 157.835 117.662 157.344C117.929 156.843 118.062 156.256 118.062 155.584ZM122.922 148.16V160H121.466V148.16H122.922ZM133.404 155.28C133.404 155.557 133.388 155.851 133.356 156.16H126.348C126.401 157.024 126.695 157.701 127.228 158.192C127.772 158.672 128.428 158.912 129.196 158.912C129.825 158.912 130.348 158.768 130.764 158.48C131.191 158.181 131.489 157.787 131.66 157.296H133.228C132.993 158.139 132.524 158.827 131.82 159.36C131.116 159.883 130.241 160.144 129.196 160.144C128.364 160.144 127.617 159.957 126.956 159.584C126.305 159.211 125.793 158.683 125.42 158C125.047 157.307 124.86 156.507 124.86 155.6C124.86 154.693 125.041 153.899 125.404 153.216C125.767 152.533 126.273 152.011 126.924 151.648C127.585 151.275 128.343 151.088 129.196 151.088C130.028 151.088 130.764 151.269 131.404 151.632C132.044 151.995 132.535 152.496 132.876 153.136C133.228 153.765 133.404 154.48 133.404 155.28ZM131.9 154.976C131.9 154.421 131.777 153.947 131.532 153.552C131.287 153.147 130.951 152.843 130.524 152.64C130.108 152.427 129.644 152.32 129.132 152.32C128.396 152.32 127.767 152.555 127.244 153.024C126.732 153.493 126.439 154.144 126.364 154.976H131.9Z" fill="black"/>
<rect width="236" height="48" transform="translate(28 178)" fill="white"/>
<path d="M62.2222 208.4H49.7778V199.6H62.2222M59.5556 194V195.6H52.4444V194H50.6667V195.6H49.7778C48.7911 195.6 48 196.312 48 197.2V208.4C48 208.824 48.1873 209.231 48.5207 209.531C48.8541 209.831 49.3063 210 49.7778 210H62.2222C62.6937 210 63.1459 209.831 63.4793 209.531C63.8127 209.231 64 208.824 64 208.4V197.2C64 196.776 63.8127 196.369 63.4793 196.069C63.1459 195.769 62.6937 195.6 62.2222 195.6H61.3333V194M60.4444 202.8H56V206.8H60.4444V202.8Z" fill="black"/>
<path d="M87.824 205.52H82.96L82.064 208H80.528L84.56 196.912H86.24L90.256 208H88.72L87.824 205.52ZM87.408 204.336L85.392 198.704L83.376 204.336H87.408ZM91.4693 203.6C91.4693 202.693 91.6506 201.904 92.0133 201.232C92.3759 200.549 92.8773 200.021 93.5173 199.648C94.1679 199.275 94.9093 199.088 95.7413 199.088C96.8186 199.088 97.7039 199.349 98.3973 199.872C99.1013 200.395 99.5653 201.12 99.7893 202.048H98.2213C98.0719 201.515 97.7786 201.093 97.3413 200.784C96.9146 200.475 96.3813 200.32 95.7413 200.32C94.9093 200.32 94.2373 200.608 93.7253 201.184C93.2133 201.749 92.9573 202.555 92.9573 203.6C92.9573 204.656 93.2133 205.472 93.7253 206.048C94.2373 206.624 94.9093 206.912 95.7413 206.912C96.3813 206.912 96.9146 206.763 97.3413 206.464C97.7679 206.165 98.0613 205.739 98.2213 205.184H99.7893C99.5546 206.08 99.0853 206.8 98.3813 207.344C97.6773 207.877 96.7973 208.144 95.7413 208.144C94.9093 208.144 94.1679 207.957 93.5173 207.584C92.8773 207.211 92.3759 206.683 92.0133 206C91.6506 205.317 91.4693 204.517 91.4693 203.6ZM103.508 200.432V205.6C103.508 206.027 103.599 206.331 103.78 206.512C103.961 206.683 104.276 206.768 104.724 206.768H105.796V208H104.484C103.673 208 103.065 207.813 102.66 207.44C102.255 207.067 102.052 206.453 102.052 205.6V200.432H100.916V199.232H102.052V197.024H103.508V199.232H105.796V200.432H103.508ZM108.312 197.808C108.035 197.808 107.8 197.712 107.608 197.52C107.416 197.328 107.32 197.093 107.32 196.816C107.32 196.539 107.416 196.304 107.608 196.112C107.8 195.92 108.035 195.824 108.312 195.824C108.579 195.824 108.803 195.92 108.984 196.112C109.176 196.304 109.272 196.539 109.272 196.816C109.272 197.093 109.176 197.328 108.984 197.52C108.803 197.712 108.579 197.808 108.312 197.808ZM109.016 199.232V208H107.56V199.232H109.016ZM114.762 206.656L117.482 199.232H119.034L115.594 208H113.898L110.458 199.232H112.026L114.762 206.656ZM121.218 197.808C120.941 197.808 120.706 197.712 120.514 197.52C120.322 197.328 120.226 197.093 120.226 196.816C120.226 196.539 120.322 196.304 120.514 196.112C120.706 195.92 120.941 195.824 121.218 195.824C121.485 195.824 121.709 195.92 121.89 196.112C122.082 196.304 122.178 196.539 122.178 196.816C122.178 197.093 122.082 197.328 121.89 197.52C121.709 197.712 121.485 197.808 121.218 197.808ZM121.922 199.232V208H120.466V199.232H121.922ZM126.18 200.432V205.6C126.18 206.027 126.271 206.331 126.452 206.512C126.633 206.683 126.948 206.768 127.396 206.768H128.468V208H127.156C126.345 208 125.737 207.813 125.332 207.44C124.927 207.067 124.724 206.453 124.724 205.6V200.432H123.588V199.232H124.724V197.024H126.18V199.232H128.468V200.432H126.18ZM137.784 199.232L132.504 212.128H131L132.728 207.904L129.192 199.232H130.808L133.56 206.336L136.28 199.232H137.784Z" fill="black"/>
<rect width="236" height="48" transform="translate(28 226)" fill="white"/>
<path d="M57.7778 254.444H51.5556V252.667H57.7778M60.4444 250.889H51.5556V249.111H60.4444M60.4444 247.333H51.5556V245.556H60.4444M62.2222 242H49.7778C48.7911 242 48 242.791 48 243.778V256.222C48 256.694 48.1873 257.146 48.5207 257.479C48.8541 257.813 49.3063 258 49.7778 258H62.2222C62.6937 258 63.1459 257.813 63.4793 257.479C63.8127 257.146 64 256.694 64 256.222V243.778C64 243.306 63.8127 242.854 63.4793 242.521C63.1459 242.187 62.6937 242 62.2222 242Z" fill="black"/>
<path d="M86.816 250.256C87.2213 250.32 87.5893 250.485 87.92 250.752C88.2613 251.019 88.528 251.349 88.72 251.744C88.9227 252.139 89.024 252.56 89.024 253.008C89.024 253.573 88.88 254.085 88.592 254.544C88.304 254.992 87.8827 255.349 87.328 255.616C86.784 255.872 86.1387 256 85.392 256H81.232V244.848H85.232C85.9893 244.848 86.6347 244.976 87.168 245.232C87.7013 245.477 88.1013 245.813 88.368 246.24C88.6347 246.667 88.768 247.147 88.768 247.68C88.768 248.341 88.5867 248.891 88.224 249.328C87.872 249.755 87.4027 250.064 86.816 250.256ZM82.688 249.664H85.136C85.8187 249.664 86.3467 249.504 86.72 249.184C87.0933 248.864 87.28 248.421 87.28 247.856C87.28 247.291 87.0933 246.848 86.72 246.528C86.3467 246.208 85.808 246.048 85.104 246.048H82.688V249.664ZM85.264 254.8C85.9893 254.8 86.5547 254.629 86.96 254.288C87.3653 253.947 87.568 253.472 87.568 252.864C87.568 252.245 87.3547 251.76 86.928 251.408C86.5013 251.045 85.9307 250.864 85.216 250.864H82.688V254.8H85.264ZM91.7965 245.808C91.5192 245.808 91.2845 245.712 91.0925 245.52C90.9005 245.328 90.8045 245.093 90.8045 244.816C90.8045 244.539 90.9005 244.304 91.0925 244.112C91.2845 243.92 91.5192 243.824 91.7965 243.824C92.0632 243.824 92.2872 243.92 92.4685 244.112C92.6605 244.304 92.7565 244.539 92.7565 244.816C92.7565 245.093 92.6605 245.328 92.4685 245.52C92.2872 245.712 92.0632 245.808 91.7965 245.808ZM92.5005 247.232V256H91.0445V247.232H92.5005ZM96.438 244.16V256H94.982V244.16H96.438ZM100.376 244.16V256H98.9195V244.16H100.376ZM103.609 245.808C103.332 245.808 103.097 245.712 102.905 245.52C102.713 245.328 102.617 245.093 102.617 244.816C102.617 244.539 102.713 244.304 102.905 244.112C103.097 243.92 103.332 243.824 103.609 243.824C103.876 243.824 104.1 243.92 104.281 244.112C104.473 244.304 104.569 244.539 104.569 244.816C104.569 245.093 104.473 245.328 104.281 245.52C104.1 245.712 103.876 245.808 103.609 245.808ZM104.313 247.232V256H102.857V247.232H104.313ZM111.067 247.072C112.133 247.072 112.997 247.397 113.659 248.048C114.32 248.688 114.651 249.616 114.651 250.832V256H113.211V251.04C113.211 250.165 112.992 249.499 112.555 249.04C112.117 248.571 111.52 248.336 110.763 248.336C109.995 248.336 109.381 248.576 108.923 249.056C108.475 249.536 108.251 250.235 108.251 251.152V256H106.795V247.232H108.251V248.48C108.539 248.032 108.928 247.685 109.419 247.44C109.92 247.195 110.469 247.072 111.067 247.072ZM120.645 247.088C121.402 247.088 122.064 247.253 122.629 247.584C123.205 247.915 123.632 248.331 123.909 248.832V247.232H125.381V256.192C125.381 256.992 125.21 257.701 124.869 258.32C124.528 258.949 124.037 259.44 123.397 259.792C122.768 260.144 122.032 260.32 121.189 260.32C120.037 260.32 119.077 260.048 118.309 259.504C117.541 258.96 117.088 258.219 116.949 257.28H118.389C118.549 257.813 118.88 258.24 119.381 258.56C119.882 258.891 120.485 259.056 121.189 259.056C121.989 259.056 122.64 258.805 123.141 258.304C123.653 257.803 123.909 257.099 123.909 256.192V254.352C123.621 254.864 123.194 255.291 122.629 255.632C122.064 255.973 121.402 256.144 120.645 256.144C119.866 256.144 119.157 255.952 118.517 255.568C117.888 255.184 117.392 254.645 117.029 253.952C116.666 253.259 116.485 252.469 116.485 251.584C116.485 250.688 116.666 249.904 117.029 249.232C117.392 248.549 117.888 248.021 118.517 247.648C119.157 247.275 119.866 247.088 120.645 247.088ZM123.909 251.6C123.909 250.939 123.776 250.363 123.509 249.872C123.242 249.381 122.88 249.008 122.421 248.752C121.973 248.485 121.477 248.352 120.933 248.352C120.389 248.352 119.893 248.48 119.445 248.736C118.997 248.992 118.64 249.365 118.373 249.856C118.106 250.347 117.973 250.923 117.973 251.584C117.973 252.256 118.106 252.843 118.373 253.344C118.64 253.835 118.997 254.213 119.445 254.48C119.893 254.736 120.389 254.864 120.933 254.864C121.477 254.864 121.973 254.736 122.421 254.48C122.88 254.213 123.242 253.835 123.509 253.344C123.776 252.843 123.909 252.261 123.909 251.6Z" fill="black"/>
<rect width="236" height="48" transform="translate(28 274)" fill="white"/>
<path d="M56 299.143C54.8213 299.143 53.6908 298.741 52.8573 298.027C52.0238 297.313 51.5556 296.344 51.5556 295.333H53.3333C53.3333 295.94 53.6143 296.521 54.1144 296.95C54.6145 297.378 55.2928 297.619 56 297.619C56.7072 297.619 57.3855 297.378 57.8856 296.95C58.3857 296.521 58.6667 295.94 58.6667 295.333H60.4444C60.4444 296.344 59.9762 297.313 59.1427 298.027C58.3092 298.741 57.1787 299.143 56 299.143ZM56 291.524C56.7072 291.524 57.3855 291.765 57.8856 292.193C58.3857 292.622 58.6667 293.203 58.6667 293.81H53.3333C53.3333 293.203 53.6143 292.622 54.1144 292.193C54.6145 291.765 55.2928 291.524 56 291.524ZM62.2222 293.81H60.4444C60.4444 293.309 60.3295 292.814 60.1061 292.352C59.8828 291.889 59.5554 291.47 59.1427 291.116C58.73 290.762 58.24 290.481 57.7008 290.29C57.1616 290.099 56.5837 290 56 290C54.8213 290 53.6908 290.401 52.8573 291.116C52.0238 291.83 51.5556 292.799 51.5556 293.81H49.7778C48.7911 293.81 48 294.488 48 295.333V304.476C48 304.88 48.1873 305.268 48.5207 305.554C48.8541 305.839 49.3063 306 49.7778 306H62.2222C62.6937 306 63.1459 305.839 63.4793 305.554C63.8127 305.268 64 304.88 64 304.476V295.333C64 294.929 63.8127 294.542 63.4793 294.256C63.1459 293.97 62.6937 293.81 62.2222 293.81Z" fill="black"/>
<path d="M92.544 292.928V304H91.088V295.744L87.408 304H86.384L82.688 295.728V304H81.232V292.928H82.8L86.896 302.08L90.992 292.928H92.544ZM94.4693 299.584C94.4693 298.688 94.6506 297.904 95.0133 297.232C95.3759 296.549 95.8719 296.021 96.5013 295.648C97.1413 295.275 97.8506 295.088 98.6293 295.088C99.3973 295.088 100.064 295.253 100.629 295.584C101.195 295.915 101.616 296.331 101.893 296.832V295.232H103.365V304H101.893V302.368C101.605 302.88 101.173 303.307 100.597 303.648C100.032 303.979 99.3706 304.144 98.6133 304.144C97.8346 304.144 97.1306 303.952 96.5013 303.568C95.8719 303.184 95.3759 302.645 95.0133 301.952C94.6506 301.259 94.4693 300.469 94.4693 299.584ZM101.893 299.6C101.893 298.939 101.76 298.363 101.493 297.872C101.227 297.381 100.864 297.008 100.405 296.752C99.9573 296.485 99.4613 296.352 98.9173 296.352C98.3733 296.352 97.8773 296.48 97.4293 296.736C96.9813 296.992 96.6239 297.365 96.3573 297.856C96.0906 298.347 95.9573 298.923 95.9573 299.584C95.9573 300.256 96.0906 300.843 96.3573 301.344C96.6239 301.835 96.9813 302.213 97.4293 302.48C97.8773 302.736 98.3733 302.864 98.9173 302.864C99.4613 302.864 99.9573 302.736 100.405 302.48C100.864 302.213 101.227 301.835 101.493 301.344C101.76 300.843 101.893 300.261 101.893 299.6ZM107.282 296.656C107.538 296.155 107.9 295.765 108.37 295.488C108.85 295.211 109.431 295.072 110.114 295.072V296.576H109.73C108.098 296.576 107.282 297.461 107.282 299.232V304H105.826V295.232H107.282V296.656ZM116.691 304L113.251 300.128V304H111.795V292.16H113.251V299.12L116.627 295.232H118.659L114.531 299.6L118.675 304H116.691ZM128.029 299.28C128.029 299.557 128.013 299.851 127.981 300.16H120.973C121.026 301.024 121.32 301.701 121.853 302.192C122.397 302.672 123.053 302.912 123.821 302.912C124.45 302.912 124.973 302.768 125.389 302.48C125.816 302.181 126.114 301.787 126.285 301.296H127.853C127.618 302.139 127.149 302.827 126.445 303.36C125.741 303.883 124.866 304.144 123.821 304.144C122.989 304.144 122.242 303.957 121.581 303.584C120.93 303.211 120.418 302.683 120.045 302C119.672 301.307 119.485 300.507 119.485 299.6C119.485 298.693 119.666 297.899 120.029 297.216C120.392 296.533 120.898 296.011 121.549 295.648C122.21 295.275 122.968 295.088 123.821 295.088C124.653 295.088 125.389 295.269 126.029 295.632C126.669 295.995 127.16 296.496 127.501 297.136C127.853 297.765 128.029 298.48 128.029 299.28ZM126.525 298.976C126.525 298.421 126.402 297.947 126.157 297.552C125.912 297.147 125.576 296.843 125.149 296.64C124.733 296.427 124.269 296.32 123.757 296.32C123.021 296.32 122.392 296.555 121.869 297.024C121.357 297.493 121.064 298.144 120.989 298.976H126.525ZM131.727 296.432V301.6C131.727 302.027 131.817 302.331 131.999 302.512C132.18 302.683 132.495 302.768 132.943 302.768H134.015V304H132.703C131.892 304 131.284 303.813 130.879 303.44C130.473 303.067 130.271 302.453 130.271 301.6V296.432H129.135V295.232H130.271V293.024H131.727V295.232H134.015V296.432H131.727ZM137.235 296.848C137.523 296.347 137.95 295.931 138.515 295.6C139.091 295.259 139.758 295.088 140.515 295.088C141.294 295.088 141.998 295.275 142.627 295.648C143.267 296.021 143.768 296.549 144.131 297.232C144.494 297.904 144.675 298.688 144.675 299.584C144.675 300.469 144.494 301.259 144.131 301.952C143.768 302.645 143.267 303.184 142.627 303.568C141.998 303.952 141.294 304.144 140.515 304.144C139.768 304.144 139.107 303.979 138.531 303.648C137.966 303.307 137.534 302.885 137.235 302.384V308.16H135.779V295.232H137.235V296.848ZM143.187 299.584C143.187 298.923 143.054 298.347 142.787 297.856C142.52 297.365 142.158 296.992 141.699 296.736C141.251 296.48 140.755 296.352 140.211 296.352C139.678 296.352 139.182 296.485 138.723 296.752C138.275 297.008 137.912 297.387 137.635 297.888C137.368 298.379 137.235 298.949 137.235 299.6C137.235 300.261 137.368 300.843 137.635 301.344C137.912 301.835 138.275 302.213 138.723 302.48C139.182 302.736 139.678 302.864 140.211 302.864C140.755 302.864 141.251 302.736 141.699 302.48C142.158 302.213 142.52 301.835 142.787 301.344C143.054 300.843 143.187 300.256 143.187 299.584ZM148.047 292.16V304H146.591V292.16H148.047ZM149.985 299.584C149.985 298.688 150.166 297.904 150.529 297.232C150.892 296.549 151.388 296.021 152.017 295.648C152.657 295.275 153.366 295.088 154.145 295.088C154.913 295.088 155.58 295.253 156.145 295.584C156.71 295.915 157.132 296.331 157.409 296.832V295.232H158.881V304H157.409V302.368C157.121 302.88 156.689 303.307 156.113 303.648C155.548 303.979 154.886 304.144 154.129 304.144C153.35 304.144 152.646 303.952 152.017 303.568C151.388 303.184 150.892 302.645 150.529 301.952C150.166 301.259 149.985 300.469 149.985 299.584ZM157.409 299.6C157.409 298.939 157.276 298.363 157.009 297.872C156.742 297.381 156.38 297.008 155.921 296.752C155.473 296.485 154.977 296.352 154.433 296.352C153.889 296.352 153.393 296.48 152.945 296.736C152.497 296.992 152.14 297.365 151.873 297.856C151.606 298.347 151.473 298.923 151.473 299.584C151.473 300.256 151.606 300.843 151.873 301.344C152.14 301.835 152.497 302.213 152.945 302.48C153.393 302.736 153.889 302.864 154.433 302.864C154.977 302.864 155.473 302.736 155.921 302.48C156.38 302.213 156.742 301.835 157.009 301.344C157.276 300.843 157.409 300.261 157.409 299.6ZM160.797 299.6C160.797 298.693 160.979 297.904 161.341 297.232C161.704 296.549 162.205 296.021 162.845 295.648C163.496 295.275 164.237 295.088 165.069 295.088C166.147 295.088 167.032 295.349 167.725 295.872C168.429 296.395 168.893 297.12 169.117 298.048H167.549C167.4 297.515 167.107 297.093 166.669 296.784C166.243 296.475 165.709 296.32 165.069 296.32C164.237 296.32 163.565 296.608 163.053 297.184C162.541 297.749 162.285 298.555 162.285 299.6C162.285 300.656 162.541 301.472 163.053 302.048C163.565 302.624 164.237 302.912 165.069 302.912C165.709 302.912 166.243 302.763 166.669 302.464C167.096 302.165 167.389 301.739 167.549 301.184H169.117C168.883 302.08 168.413 302.8 167.709 303.344C167.005 303.877 166.125 304.144 165.069 304.144C164.237 304.144 163.496 303.957 162.845 303.584C162.205 303.211 161.704 302.683 161.341 302C160.979 301.317 160.797 300.517 160.797 299.6ZM179.06 299.28C179.06 299.557 179.044 299.851 179.012 300.16H172.004C172.057 301.024 172.351 301.701 172.884 302.192C173.428 302.672 174.084 302.912 174.852 302.912C175.481 302.912 176.004 302.768 176.42 302.48C176.847 302.181 177.145 301.787 177.316 301.296H178.884C178.649 302.139 178.18 302.827 177.476 303.36C176.772 303.883 175.897 304.144 174.852 304.144C174.02 304.144 173.273 303.957 172.612 303.584C171.961 303.211 171.449 302.683 171.076 302C170.703 301.307 170.516 300.507 170.516 299.6C170.516 298.693 170.697 297.899 171.06 297.216C171.423 296.533 171.929 296.011 172.58 295.648C173.241 295.275 173.999 295.088 174.852 295.088C175.684 295.088 176.42 295.269 177.06 295.632C177.7 295.995 178.191 296.496 178.532 297.136C178.884 297.765 179.06 298.48 179.06 299.28ZM177.556 298.976C177.556 298.421 177.433 297.947 177.188 297.552C176.943 297.147 176.607 296.843 176.18 296.64C175.764 296.427 175.3 296.32 174.788 296.32C174.052 296.32 173.423 296.555 172.9 297.024C172.388 297.493 172.095 298.144 172.02 298.976H177.556Z" fill="black"/>
<rect width="236" height="48" transform="translate(28 322)" fill="white"/>
<path d="M62.2222 338H49.7778C48.8 338 48 338.8 48 339.778V352.222C48 353.2 48.8 354 49.7778 354H62.2222C63.2 354 64 353.2 64 352.222V339.778C64 338.8 63.2 338 62.2222 338ZM53.3333 350.444H51.5556V344.222H53.3333V350.444ZM56.8889 350.444H55.1111V341.556H56.8889V350.444ZM60.4444 350.444H58.6667V346.889H60.4444V350.444Z" fill="black"/>
<path d="M82.688 340.848V352H81.232V340.848H82.688ZM89.4415 343.072C90.5082 343.072 91.3722 343.397 92.0335 344.048C92.6948 344.688 93.0255 345.616 93.0255 346.832V352H91.5855V347.04C91.5855 346.165 91.3668 345.499 90.9295 345.04C90.4922 344.571 89.8948 344.336 89.1375 344.336C88.3695 344.336 87.7562 344.576 87.2975 345.056C86.8495 345.536 86.6255 346.235 86.6255 347.152V352H85.1695V343.232H86.6255V344.48C86.9135 344.032 87.3028 343.685 87.7935 343.44C88.2948 343.195 88.8442 343.072 89.4415 343.072ZM98.5079 352.144C97.8359 352.144 97.2332 352.032 96.6999 351.808C96.1665 351.573 95.7452 351.253 95.4359 350.848C95.1265 350.432 94.9559 349.957 94.9239 349.424H96.4279C96.4705 349.861 96.6732 350.219 97.0359 350.496C97.4092 350.773 97.8945 350.912 98.4919 350.912C99.0465 350.912 99.4839 350.789 99.8039 350.544C100.124 350.299 100.284 349.989 100.284 349.616C100.284 349.232 100.113 348.949 99.7719 348.768C99.4305 348.576 98.9025 348.389 98.1879 348.208C97.5372 348.037 97.0039 347.867 96.5879 347.696C96.1825 347.515 95.8305 347.253 95.5319 346.912C95.2439 346.56 95.0999 346.101 95.0999 345.536C95.0999 345.088 95.2332 344.677 95.4999 344.304C95.7665 343.931 96.1452 343.637 96.6359 343.424C97.1265 343.2 97.6865 343.088 98.3159 343.088C99.2865 343.088 100.071 343.333 100.668 343.824C101.265 344.315 101.585 344.987 101.628 345.84H100.172C100.14 345.381 99.9532 345.013 99.6119 344.736C99.2812 344.459 98.8332 344.32 98.2679 344.32C97.7452 344.32 97.3292 344.432 97.0199 344.656C96.7105 344.88 96.5559 345.173 96.5559 345.536C96.5559 345.824 96.6465 346.064 96.8279 346.256C97.0199 346.437 97.2545 346.587 97.5319 346.704C97.8199 346.811 98.2145 346.933 98.7159 347.072C99.3452 347.243 99.8572 347.413 100.252 347.584C100.647 347.744 100.983 347.989 101.26 348.32C101.548 348.651 101.697 349.083 101.708 349.616C101.708 350.096 101.575 350.528 101.308 350.912C101.041 351.296 100.663 351.6 100.172 351.824C99.6919 352.037 99.1372 352.144 98.5079 352.144ZM104.515 341.808C104.238 341.808 104.003 341.712 103.811 341.52C103.619 341.328 103.523 341.093 103.523 340.816C103.523 340.539 103.619 340.304 103.811 340.112C104.003 339.92 104.238 339.824 104.515 339.824C104.782 339.824 105.006 339.92 105.187 340.112C105.379 340.304 105.475 340.539 105.475 340.816C105.475 341.093 105.379 341.328 105.187 341.52C105.006 341.712 104.782 341.808 104.515 341.808ZM105.219 343.232V352H103.763V343.232H105.219ZM111.317 343.088C112.074 343.088 112.735 343.253 113.301 343.584C113.877 343.915 114.303 344.331 114.581 344.832V343.232H116.053V352.192C116.053 352.992 115.882 353.701 115.541 354.32C115.199 354.949 114.709 355.44 114.069 355.792C113.439 356.144 112.703 356.32 111.861 356.32C110.709 356.32 109.749 356.048 108.981 355.504C108.213 354.96 107.759 354.219 107.621 353.28H109.061C109.221 353.813 109.551 354.24 110.053 354.56C110.554 354.891 111.157 355.056 111.861 355.056C112.661 355.056 113.311 354.805 113.813 354.304C114.325 353.803 114.581 353.099 114.581 352.192V350.352C114.293 350.864 113.866 351.291 113.301 351.632C112.735 351.973 112.074 352.144 111.317 352.144C110.538 352.144 109.829 351.952 109.189 351.568C108.559 351.184 108.063 350.645 107.701 349.952C107.338 349.259 107.157 348.469 107.157 347.584C107.157 346.688 107.338 345.904 107.701 345.232C108.063 344.549 108.559 344.021 109.189 343.648C109.829 343.275 110.538 343.088 111.317 343.088ZM114.581 347.6C114.581 346.939 114.447 346.363 114.181 345.872C113.914 345.381 113.551 345.008 113.093 344.752C112.645 344.485 112.149 344.352 111.605 344.352C111.061 344.352 110.565 344.48 110.117 344.736C109.669 344.992 109.311 345.365 109.045 345.856C108.778 346.347 108.645 346.923 108.645 347.584C108.645 348.256 108.778 348.843 109.045 349.344C109.311 349.835 109.669 350.213 110.117 350.48C110.565 350.736 111.061 350.864 111.605 350.864C112.149 350.864 112.645 350.736 113.093 350.48C113.551 350.213 113.914 349.835 114.181 349.344C114.447 348.843 114.581 348.261 114.581 347.6ZM122.865 343.072C123.527 343.072 124.124 343.216 124.657 343.504C125.191 343.781 125.607 344.203 125.905 344.768C126.215 345.333 126.369 346.021 126.369 346.832V352H124.929V347.04C124.929 346.165 124.711 345.499 124.273 345.04C123.836 344.571 123.239 344.336 122.481 344.336C121.713 344.336 121.1 344.576 120.641 345.056C120.193 345.536 119.969 346.235 119.969 347.152V352H118.513V340.16H119.969V344.48C120.257 344.032 120.652 343.685 121.153 343.44C121.665 343.195 122.236 343.072 122.865 343.072ZM130.524 344.432V349.6C130.524 350.027 130.614 350.331 130.796 350.512C130.977 350.683 131.292 350.768 131.74 350.768H132.812V352H131.5C130.689 352 130.081 351.813 129.676 351.44C129.27 351.067 129.068 350.453 129.068 349.6V344.432H127.932V343.232H129.068V341.024H130.524V343.232H132.812V344.432H130.524ZM137.68 352.144C137.008 352.144 136.405 352.032 135.872 351.808C135.338 351.573 134.917 351.253 134.608 350.848C134.298 350.432 134.128 349.957 134.096 349.424H135.6C135.642 349.861 135.845 350.219 136.208 350.496C136.581 350.773 137.066 350.912 137.664 350.912C138.218 350.912 138.656 350.789 138.976 350.544C139.296 350.299 139.456 349.989 139.456 349.616C139.456 349.232 139.285 348.949 138.944 348.768C138.602 348.576 138.074 348.389 137.36 348.208C136.709 348.037 136.176 347.867 135.76 347.696C135.354 347.515 135.002 347.253 134.704 346.912C134.416 346.56 134.272 346.101 134.272 345.536C134.272 345.088 134.405 344.677 134.672 344.304C134.938 343.931 135.317 343.637 135.808 343.424C136.298 343.2 136.858 343.088 137.488 343.088C138.458 343.088 139.242 343.333 139.84 343.824C140.437 344.315 140.757 344.987 140.8 345.84H139.344C139.312 345.381 139.125 345.013 138.784 344.736C138.453 344.459 138.005 344.32 137.44 344.32C136.917 344.32 136.501 344.432 136.192 344.656C135.882 344.88 135.728 345.173 135.728 345.536C135.728 345.824 135.818 346.064 136 346.256C136.192 346.437 136.426 346.587 136.704 346.704C136.992 346.811 137.386 346.933 137.888 347.072C138.517 347.243 139.029 347.413 139.424 347.584C139.818 347.744 140.154 347.989 140.432 348.32C140.72 348.651 140.869 349.083 140.88 349.616C140.88 350.096 140.746 350.528 140.48 350.912C140.213 351.296 139.834 351.6 139.344 351.824C138.864 352.037 138.309 352.144 137.68 352.144Z" fill="black"/>
</svg>
